<svg width="20" height="8" viewBox="0 0 20 8" fill="none" xmlns="http://www.w3.org/2000/svg">
<g clip-path="url(#clip0_1137_4)">
<path d="M13.7177 7.80908C15.6058 7.80908 17.1364 6.299 17.1364 4.43607C17.1364 2.57313 15.606 1.06305 13.7177 1.06305C11.8295 1.06305 10.2988 2.57313 10.2988 4.43607C10.2988 6.299 11.8295 7.80908 13.7177 7.80908V7.80908Z" fill="url(#paint0_linear_1137_4)"/>
<path d="M8.56803 2.72864C9.29085 2.72864 9.87672 2.13212 9.87672 1.39595C9.87672 0.660216 9.29063 0.0634766 8.56803 0.0634766C7.84542 0.0634766 7.25977 0.660002 7.25977 1.39595C7.25977 2.13212 7.84542 2.72864 8.56803 2.72864Z" fill="url(#paint1_linear_1137_4)"/>
<path d="M18.5721 7.8074C19.318 7.8074 19.9227 7.22932 19.9227 6.51633C19.9227 5.80333 19.318 5.22546 18.5721 5.22546C17.826 5.22546 17.2214 5.80333 17.2214 6.51633C17.2214 7.22932 17.826 7.8074 18.5721 7.8074Z" fill="#F34C5D"/>
<path d="M6.83761 0.146484C5.9637 0.146484 5.21152 0.645412 4.85217 1.37192C4.40212 1.1654 3.91156 1.059 3.41522 1.06026C1.52913 1.06026 0 2.57119 0 4.43456C0 6.29792 1.52913 7.80886 3.41522 7.80886C5.3013 7.80886 6.83044 6.29792 6.83044 4.43456L6.83761 0.146699V0.146484Z" fill="url(#paint2_linear_1137_4)"/>
<path d="M8.55846 2.72864C8.21406 2.72875 7.8838 2.86379 7.64027 3.10408C7.39674 3.34437 7.25988 3.67024 7.25977 4.01006V7.89252C8.70564 7.89252 9.8765 6.73722 9.8765 5.31058V4.02915C9.8761 3.68436 9.73711 3.3538 9.49001 3.10999C9.24292 2.86618 8.9079 2.72904 8.55846 2.72864V2.72864Z" fill="url(#paint3_linear_1137_4)"/>
</g>
<defs>
<linearGradient id="paint0_linear_1137_4" x1="10.2971" y1="4.43628" x2="17.1367" y2="4.43628" gradientUnits="userSpaceOnUse">
<stop stop-color="#6948D0"/>
<stop offset="1" stop-color="#DF4D68"/>
</linearGradient>
<linearGradient id="paint1_linear_1137_4" x1="7.25977" y1="1.39681" x2="9.87563" y2="1.39681" gradientUnits="userSpaceOnUse">
<stop stop-color="#4E67DE"/>
<stop offset="1" stop-color="#6948D0"/>
</linearGradient>
<linearGradient id="paint2_linear_1137_4" x1="-0.00173913" y1="3.9781" x2="6.83783" y2="3.9781" gradientUnits="userSpaceOnUse">
<stop stop-color="#18B0F4"/>
<stop offset="1" stop-color="#4E67DE"/>
</linearGradient>
<linearGradient id="paint3_linear_1137_4" x1="7.25868" y1="5.31122" x2="9.87542" y2="5.31122" gradientUnits="userSpaceOnUse">
<stop stop-color="#4E67DE"/>
<stop offset="1" stop-color="#6948D0"/>
</linearGradient>
<clipPath id="clip0_1137_4">
<rect width="20" height="7.93651" fill="white" transform="translate(0 0.0634766)"/>
</clipPath>
</defs>
</svg>
